<?xml version="1.0" encoding="UTF-8"?> 
<svg xmlns="http://www.w3.org/2000/svg" xmlns:xlink="http://www.w3.org/1999/xlink" width="40" height="40" viewBox="0 0 2501 2501">
    <path fill-rule="nonzero" fill="rgb(0, 0, 0)" fill-opacity="1" d="M 1267.300781 1536.328125 L 1324.261719 1456.621094 C 1332.300781 1445.371094 1343.289062 1437.480469 1355.570312 1433.480469 C 1367.851562 1429.488281 1381.378906 1429.421875 1394.480469 1433.789062 L 1487.421875 1464.800781 C 1490.621094 1465.871094 1493.839844 1466.148438 1496.921875 1465.679688 C 1499.960938 1465.210938 1502.941406 1463.949219 1505.730469 1461.921875 C 1508.558594 1459.871094 1510.679688 1457.441406 1512.03125 1454.761719 C 1513.421875 1452.011719 1514.128906 1448.851562 1514.101562 1445.410156 L 1513.328125 1347.441406 C 1513.21875 1333.609375 1517.449219 1320.789062 1525.019531 1310.378906 C 1532.640625 1299.878906 1543.539062 1291.839844 1556.679688 1287.691406 L 1650.089844 1258.148438 C 1653.460938 1257.078125 1656.25 1255.460938 1658.339844 1253.378906 C 1660.488281 1251.25 1662.148438 1248.46875 1663.238281 1245.128906 C 1664.320312 1241.800781 1664.609375 1238.578125 1664.128906 1235.609375 C 1663.640625 1232.601562 1662.359375 1229.640625 1660.308594 1226.871094 L 1602.101562 1148.058594 C 1593.859375 1136.898438 1589.730469 1124.011719 1589.730469 1111.140625 C 1589.730469 1098.261719 1593.859375 1085.378906 1602.101562 1074.21875 L 1660.308594 995.410156 C 1662.359375 992.640625 1663.640625 989.679688 1664.128906 986.671875 C 1664.609375 983.691406 1664.320312 980.480469 1663.238281 977.148438 C 1662.148438 973.808594 1660.488281 971.03125 1658.339844 968.898438 C 1656.238281 966.820312 1653.460938 965.199219 1650.089844 964.128906 L 1556.679688 934.589844 C 1543.539062 930.441406 1532.648438 922.398438 1525.019531 911.898438 C 1517.460938 901.488281 1513.21875 888.671875 1513.328125 874.839844 L 1514.101562 776.871094 C 1514.128906 773.429688 1513.421875 770.269531 1512.03125 767.519531 C 1510.679688 764.839844 1508.558594 762.410156 1505.730469 760.359375 C 1502.941406 758.328125 1499.960938 757.070312 1496.921875 756.601562 C 1493.839844 756.128906 1490.621094 756.410156 1487.421875 757.480469 L 1394.480469 788.488281 C 1381.378906 792.859375 1367.851562 792.789062 1355.570312 788.800781 C 1343.289062 784.800781 1332.300781 776.910156 1324.261719 765.660156 L 1267.300781 685.949219 C 1265.300781 683.148438 1262.878906 681.019531 1260.160156 679.621094 C 1257.53125 678.269531 1254.390625 677.558594 1250.839844 677.558594 C 1247.289062 677.558594 1244.148438 678.269531 1241.519531 679.621094 C 1238.800781 681.019531 1236.378906 683.148438 1234.378906 685.949219 L 1177.421875 765.660156 C 1169.378906 776.910156 1158.390625 784.800781 1146.109375 788.800781 C 1133.828125 792.789062 1120.300781 792.859375 1107.199219 788.488281 L 1014.261719 757.480469 C 1011.058594 756.410156 1007.839844 756.128906 1004.761719 756.601562 C 1001.71875 757.070312 998.742188 758.328125 995.949219 760.359375 C 993.125 762.410156 991.003906 764.839844 989.652344 767.519531 C 988.265625 770.269531 987.554688 773.429688 987.582031 776.871094 L 988.351562 874.839844 C 988.460938 888.671875 984.226562 901.488281 976.660156 911.898438 C 969.035156 922.398438 958.136719 930.441406 945.003906 934.589844 L 851.589844 964.128906 C 848.214844 965.199219 845.433594 966.820312 843.339844 968.898438 C 841.191406 971.03125 839.527344 973.808594 838.445312 977.148438 C 837.363281 980.480469 837.074219 983.691406 837.554688 986.671875 C 838.042969 989.679688 839.324219 992.640625 841.371094 995.410156 L 899.582031 1074.21875 C 907.824219 1085.378906 911.945312 1098.261719 911.945312 1111.140625 C 911.945312 1124.011719 907.824219 1136.898438 899.582031 1148.058594 L 841.371094 1226.871094 C 839.324219 1229.640625 838.042969 1232.601562 837.554688 1235.609375 C 837.074219 1238.578125 837.363281 1241.800781 838.445312 1245.128906 C 839.53125 1248.46875 841.191406 1251.25 843.339844 1253.378906 C 845.4375 1255.460938 848.21875 1257.078125 851.589844 1258.148438 L 945.003906 1287.691406 C 958.136719 1291.839844 969.035156 1299.878906 976.660156 1310.378906 C 984.222656 1320.789062 988.460938 1333.609375 988.351562 1347.441406 L 987.582031 1445.410156 C 987.554688 1448.851562 988.265625 1452.011719 989.652344 1454.761719 C 991.003906 1457.441406 993.125 1459.871094 995.949219 1461.921875 C 998.742188 1463.949219 1001.71875 1465.210938 1004.761719 1465.679688 C 1007.839844 1466.148438 1011.058594 1465.871094 1014.261719 1464.800781 L 1107.199219 1433.789062 C 1120.300781 1429.421875 1133.828125 1429.488281 1146.109375 1433.480469 C 1158.390625 1437.480469 1169.378906 1445.371094 1177.421875 1456.621094 L 1234.378906 1536.328125 C 1236.378906 1539.128906 1238.800781 1541.261719 1241.519531 1542.660156 C 1244.148438 1544.011719 1247.289062 1544.71875 1250.839844 1544.71875 C 1254.390625 1544.71875 1257.53125 1544.011719 1260.160156 1542.660156 C 1262.878906 1541.261719 1265.300781 1539.128906 1267.300781 1536.328125 Z M 1358.351562 1480.871094 L 1301.390625 1560.585938 C 1295.421875 1568.949219 1287.941406 1575.441406 1279.339844 1579.867188 C 1270.640625 1584.34375 1261.011719 1586.675781 1250.839844 1586.675781 C 1240.671875 1586.675781 1231.039062 1584.34375 1222.339844 1579.867188 C 1213.738281 1575.441406 1206.261719 1568.949219 1200.289062 1560.585938 L 1143.328125 1480.871094 C 1140.691406 1477.179688 1137.121094 1474.601562 1133.160156 1473.308594 C 1129.199219 1472.03125 1124.789062 1472.019531 1120.46875 1473.460938 L 1027.539062 1504.464844 C 1017.71875 1507.738281 1007.859375 1508.609375 998.363281 1507.144531 C 988.804688 1505.671875 979.671875 1501.882812 971.363281 1495.851562 C 963.089844 1489.839844 956.664062 1482.300781 952.28125 1473.609375 C 947.933594 1464.988281 945.703125 1455.359375 945.785156 1445.078125 L 946.558594 1347.109375 C 946.59375 1342.570312 945.207031 1338.371094 942.734375 1334.960938 C 940.324219 1331.640625 936.761719 1329.070312 932.382812 1327.679688 L 838.96875 1298.140625 C 829.257812 1295.070312 820.785156 1289.941406 813.839844 1283.050781 C 806.941406 1276.210938 801.769531 1267.789062 798.617188 1258.078125 C 795.460938 1248.359375 794.691406 1238.5 796.253906 1228.890625 C 797.804688 1219.339844 801.664062 1210.21875 807.769531 1201.960938 L 865.980469 1123.148438 C 868.652344 1119.53125 869.988281 1115.339844 869.988281 1111.140625 C 869.988281 1106.941406 868.652344 1102.75 865.980469 1099.128906 L 807.769531 1020.320312 C 801.664062 1012.058594 797.804688 1002.941406 796.253906 993.390625 C 794.691406 983.78125 795.460938 973.921875 798.617188 964.199219 C 801.769531 954.488281 806.941406 946.070312 813.835938 939.230469 C 820.78125 932.339844 829.257812 927.210938 838.96875 924.140625 L 932.382812 894.601562 C 936.765625 893.210938 940.324219 890.640625 942.734375 887.320312 C 945.207031 883.910156 946.59375 879.710938 946.558594 875.171875 L 945.785156 777.199219 C 945.703125 766.921875 947.933594 757.289062 952.28125 748.671875 C 956.664062 739.980469 963.089844 732.441406 971.363281 726.429688 C 979.671875 720.398438 988.804688 716.609375 998.363281 715.128906 C 1007.859375 713.671875 1017.71875 714.539062 1027.539062 717.820312 L 1120.46875 748.820312 C 1124.789062 750.261719 1129.199219 750.25 1133.160156 748.96875 C 1137.121094 747.679688 1140.691406 745.101562 1143.328125 741.410156 L 1200.289062 661.691406 C 1206.261719 653.328125 1213.738281 646.839844 1222.339844 642.410156 C 1231.039062 637.941406 1240.671875 635.601562 1250.839844 635.601562 C 1261.011719 635.601562 1270.640625 637.941406 1279.339844 642.410156 C 1287.941406 646.839844 1295.421875 653.328125 1301.390625 661.691406 L 1358.351562 741.410156 C 1360.988281 745.101562 1364.558594 747.679688 1368.519531 748.96875 C 1372.480469 750.25 1376.890625 750.261719 1381.210938 748.820312 L 1474.140625 717.820312 C 1483.960938 714.539062 1493.820312 713.671875 1503.320312 715.128906 C 1512.878906 716.609375 1522.011719 720.398438 1530.320312 726.429688 C 1538.589844 732.441406 1545.011719 739.980469 1549.398438 748.671875 C 1553.75 757.289062 1555.980469 766.921875 1555.890625 777.199219 L 1555.121094 875.171875 C 1555.089844 879.710938 1556.46875 883.910156 1558.949219 887.320312 C 1561.359375 890.640625 1564.921875 893.210938 1569.300781 894.601562 L 1662.710938 924.140625 C 1672.421875 927.210938 1680.898438 932.339844 1687.839844 939.230469 C 1694.738281 946.070312 1699.910156 954.488281 1703.058594 964.199219 C 1706.21875 973.921875 1706.988281 983.78125 1705.429688 993.390625 C 1703.878906 1002.941406 1700.011719 1012.058594 1693.910156 1020.320312 L 1635.699219 1099.128906 C 1633.03125 1102.75 1631.691406 1106.941406 1631.691406 1111.140625 C 1631.691406 1115.339844 1633.03125 1119.53125 1635.699219 1123.148438 L 1693.910156 1201.960938 C 1700.011719 1210.21875 1703.878906 1219.339844 1705.429688 1228.890625 C 1706.988281 1238.5 1706.21875 1248.359375 1703.058594 1258.078125 C 1699.910156 1267.789062 1694.738281 1276.210938 1687.839844 1283.050781 C 1680.898438 1289.941406 1672.421875 1295.070312 1662.710938 1298.140625 L 1569.300781 1327.679688 C 1564.921875 1329.070312 1561.359375 1331.640625 1558.949219 1334.960938 C 1556.46875 1338.359375 1555.089844 1342.570312 1555.121094 1347.109375 L 1555.890625 1445.078125 C 1555.980469 1455.359375 1553.75 1464.988281 1549.398438 1473.609375 C 1545.011719 1482.300781 1538.589844 1489.839844 1530.320312 1495.851562 C 1522.011719 1501.882812 1512.878906 1505.671875 1503.320312 1507.144531 C 1493.820312 1508.609375 1483.960938 1507.738281 1474.140625 1504.464844 L 1381.210938 1473.460938 C 1376.890625 1472.019531 1372.480469 1472.03125 1368.519531 1473.308594 C 1364.558594 1474.601562 1360.988281 1477.179688 1358.351562 1480.871094 "/>
    <path fill-rule="nonzero" fill="rgb(0, 0, 0)" fill-opacity="1" d="M 1476.558594 1483.21875 L 1476.558594 1831.609375 C 1476.558594 1836.9375 1475.289062 1842.058594 1472.878906 1846.761719 C 1470.5 1851.371094 1467.058594 1855.351562 1462.628906 1858.511719 C 1458.230469 1861.660156 1453.359375 1863.625 1448.25 1864.375 C 1443.121094 1865.125 1437.898438 1864.644531 1432.820312 1862.90625 L 1250.839844 1800.640625 L 1068.859375 1862.90625 C 1063.78125 1864.644531 1058.558594 1865.125 1053.429688 1864.375 C 1048.320312 1863.625 1043.449219 1861.660156 1039.050781 1858.511719 C 1034.628906 1855.351562 1031.179688 1851.371094 1028.800781 1846.761719 C 1026.390625 1842.058594 1025.128906 1836.9375 1025.128906 1831.609375 L 1025.128906 1483.21875 L 1067.078125 1469.21875 L 1067.078125 1819.25 L 1240.199219 1760.019531 C 1243.761719 1758.800781 1247.28125 1758.191406 1250.839844 1758.191406 C 1254.398438 1758.191406 1257.921875 1758.800781 1261.480469 1760.019531 L 1434.601562 1819.25 L 1434.601562 1469.21875 L 1476.558594 1483.21875 "/>
    <path fill-rule="nonzero" fill="rgb(0,0,0)" fill-opacity="1" d="M 1154.5 1462.101562 L 1154.5 1696.953125 L 1211.898438 1677.3125 C 1224.628906 1672.957031 1237.761719 1670.777344 1250.839844 1670.777344 C 1263.921875 1670.777344 1277.050781 1672.957031 1289.78125 1677.3125 L 1347.179688 1696.953125 L 1347.179688 1462.101562 C 1358.039062 1452.140625 1373.289062 1448.769531 1387.851562 1453.621094 L 1389.140625 1454.058594 L 1389.140625 1755.570312 L 1276.339844 1716.976562 C 1268.078125 1714.152344 1259.480469 1712.738281 1250.839844 1712.738281 C 1242.199219 1712.738281 1233.601562 1714.152344 1225.339844 1716.976562 L 1112.539062 1755.570312 L 1112.539062 1454.058594 L 1113.828125 1453.621094 C 1128.390625 1448.769531 1143.640625 1452.140625 1154.5 1462.101562 "/>
 </svg> 